HIERARCHY
ROOT Hips
{
  OFFSET 0 89.5177 0.535
  CHANNELS 6 Xposition Yposition Zposition Zrotation Xrotation Yrotation
  JOINT Spine
  {
    OFFSET 12.0259 -0.162855 1.69034e-005
    CHANNELS 3 Zrotation Xrotation Yrotation
    JOINT Spine1
    {
      OFFSET 15.3169 -0.0121922 0
      CHANNELS 3 Zrotation Xrotation Yrotation
      JOINT Spine2
      {
        OFFSET 15.3176 -0.0121908 0
        CHANNELS 3 Zrotation Xrotation Yrotation
        JOINT Neck
        {
          OFFSET 19.9142 1.56338 0
          CHANNELS 3 Zrotation Xrotation Yrotation
          JOINT Head
          {
            OFFSET 6.92651 0 0
            CHANNELS 3 Zrotation Xrotation Yrotation
            End Site
            {
              OFFSET 20.7666 0 0
            }
          }
          JOINT LeftShoulder
          {
            OFFSET -6.20654 0.708824 7.28219
            CHANNELS 3 Zrotation Xrotation Yrotation
            JOINT LeftArm
            {
              OFFSET 14.108 0 -1.52588e-005
              CHANNELS 3 Zrotation Xrotation Yrotation
              JOINT LeftForeArm
              {
                OFFSET 28.5802 0 0
                CHANNELS 3 Zrotation Xrotation Yrotation
                JOINT LeftHand
                {
                  OFFSET 27.092 0 0
                  CHANNELS 3 Zrotation Xrotation Yrotation
                  End Site
                  {
                    OFFSET 9.55928 -0.186424 0.145352
                  }
                }
              }
            }
          }
          JOINT RightShoulder
          {
            OFFSET -6.20654 0.708866 -7.28218
            CHANNELS 3 Zrotation Xrotation Yrotation
            JOINT RightArm
            {
              OFFSET 14.108 0 1.52588e-005
              CHANNELS 3 Zrotation Xrotation Yrotation
              JOINT RightForeArm
              {
                OFFSET 28.5802 0 0
                CHANNELS 3 Zrotation Xrotation Yrotation
                JOINT RightHand
                {
                  OFFSET 27.092 0 0
                  CHANNELS 3 Zrotation Xrotation Yrotation
                  End Site
                  {
                    OFFSET 9.55929 -0.186417 -0.145354
                  }
                }
              }
            }
          }
        }
      }
    }
  }
  JOINT LeftUpLeg
  {
    OFFSET 0.005 -0.535 8.837
    CHANNELS 3 Zrotation Xrotation Yrotation
    JOINT LeftLeg
    {
      OFFSET 39.9035 0 0
      CHANNELS 3 Zrotation Xrotation Yrotation
      JOINT LeftFoot
      {
        OFFSET 39.6689 0 0
        CHANNELS 3 Zrotation Xrotation Yrotation
        JOINT LeftToe
        {
          OFFSET 10.1624 13.6296 0
          CHANNELS 3 Zrotation Xrotation Yrotation
          End Site
          {
            OFFSET 8.38147 0 0
          }
        }
      }
    }
  }
  JOINT RightUpLeg
  {
    OFFSET 0.005 -0.535 -8.837
    CHANNELS 3 Zrotation Xrotation Yrotation
    JOINT RightLeg
    {
      OFFSET 39.9035 0 0
      CHANNELS 3 Zrotation Xrotation Yrotation
      JOINT RightFoot
      {
        OFFSET 39.6689 0 0
        CHANNELS 3 Zrotation Xrotation Yrotation
        JOINT RightToe
        {
          OFFSET 10.1624 13.6296 0
          CHANNELS 3 Zrotation Xrotation Yrotation
          End Site
          {
            OFFSET 8.38147 0 0
          }
        }
      }
    }
  }
}
MOTION
Frames:	8
Frame Time:	0.0333333
305.107 71.2265 -127.079 -99.5275 -45.4402 177.196 11.0916 -0.0604871 2.09736 22.178 0.284088 4.16723 22.178 0.284086 4.16722 -8.3043e-012 -9.0191e-006 -5.27751e-005 -25.0259 -20.326 1.82701 179.171 2.82175 -73.6177 -0.0573013 8.08585 56.7609 -38.5039 -3.18055e-015 7.95139e-016 -67.3968 -47.2362 -74.8991 -179.586 10.2112 87.6669 -87.0366 74.6974 42.7185 -29.7457 -6.36111e-015 -7.95139e-015 -47.5699 28.7636 47.3328 -2.60918 -19.7367 -178.696 -60.2575 1.59028e-015 -0 28.2154 2.88654 -5.97887 90 0 -0 -57.5032 -8.61755 170.732 -75.1431 -6.36111e-015 3.18056e-015 28.5538 -6.22741 12.9316 90 3.18055e-015 -0 
304.982 71.3111 -127.07 -99.5293 -45.4971 177.236 11.0464 -0.0876216 2.09764 22.0887 0.22876 4.17323 22.0887 0.228758 4.17322 -8.30271e-012 -9.0191e-006 -5.27751e-005 -24.9924 -20.5003 1.84832 179.15 2.8863 -73.5923 -0.051946 8.03608 56.5986 -38.4828 6.36111e-015 1.98785e-015 -67.419 -47.2095 -74.9096 -179.578 10.1855 87.6169 -85.6554 74.5888 41.5985 -29.8605 -3.18055e-015 -9.14409e-015 -47.5417 28.8373 47.3085 -2.60614 -19.5253 -178.6 -60.0635 -4.77083e-015 -6.36111e-015 28.4542 3.09087 -6.40224 90 -3.18055e-015 -9.54166e-015 -57.3908 -8.4704 170.766 -74.8694 0 4.77083e-015 28.4001 -6.13255 12.7272 90 0 9.54166e-015 
304.869 71.3833 -127.053 -99.464 -45.5022 177.173 10.9998 -0.100778 2.11545 21.9959 0.204408 4.21129 21.9959 0.204407 4.21129 -8.31066e-012 -9.0191e-006 -5.27751e-005 -24.9178 -20.518 1.85021 179.154 2.8752 -73.5893 0.109618 7.87741 56.5097 -38.4285 -3.18055e-015 1.59028e-015 -67.6318 -46.9661 -75.0974 -179.577 10.123 87.5955 -85.0072 74.5728 41.1211 -29.7221 9.54166e-015 5.96354e-015 -47.5373 28.7484 47.2164 -2.50606 -19.1954 -178.252 -59.9193 -3.18055e-015 -0 28.8578 3.42732 -7.10125 90 -9.54166e-015 3.18055e-015 -57.2497 -8.3859 170.962 -74.6325 3.18056e-015 -0 28.1931 -5.97545 12.3893 90 0 3.18055e-015 
304.793 71.4356 -127.037 -99.1461 -45.5914 177.281 10.9958 -0.13025 2.13689 21.9888 0.149964 4.25942 21.9888 0.149962 4.25941 -8.30589e-012 -9.0191e-006 -5.27751e-005 -24.8408 -20.5149 1.91051 179.163 2.84912 -73.6152 0.107648 7.80614 56.395 -38.4785 3.18055e-015 -1.39149e-015 -68.0223 -46.9387 -75.6162 -179.578 10.1098 87.5974 -84.9601 74.7414 41.095 -29.5474 -3.18055e-015 -6.36111e-015 -47.5362 28.7324 47.2186 -2.18489 -19.0671 -177.878 -59.777 -1.59028e-015 -6.36111e-015 29.3636 3.84504 -7.97206 90 3.18055e-015 6.36111e-015 -56.9516 -8.48421 170.968 -74.4427 0 -1.59028e-015 28.0728 -5.98856 12.415 90 1.59028e-015 -3.18055e-015 
304.7 71.4452 -127.005 -98.8831 -45.6566 177.444 10.9685 -0.150255 2.13568 21.935 0.109094 4.26096 21.935 0.109092 4.26095 -8.30907e-012 -9.0191e-006 -5.27751e-005 -24.6522 -20.6065 1.9821 179.155 2.88102 -73.6406 0.167202 7.78323 56.2911 -38.4826 -3.18055e-015 1.68967e-015 -67.9104 -46.8198 -75.4044 -179.575 10.0955 87.5775 -84.0346 74.8623 40.2922 -29.5526 0 3.37934e-015 -47.5951 28.8698 47.444 -2.04948 -18.8436 -177.672 -59.8106 4.77083e-015 3.18055e-015 29.8118 4.13258 -8.57276 90 3.18055e-015 6.36111e-015 -56.8243 -8.55953 170.88 -74.3747 3.18056e-015 -3.18056e-015 27.979 -5.99629 12.431 90 1.59028e-015 3.18055e-015 
304.604 71.4526 -126.988 -98.5924 -45.5642 177.523 10.9413 -0.135082 2.13863 21.88 0.138703 4.26405 21.88 0.138702 4.26404 -8.30748e-012 -9.0191e-006 -5.27751e-005 -24.5291 -20.6331 1.9833 179.172 2.81245 -73.5881 0.150561 7.79259 56.1488 -38.5358 0 6.26172e-015 -67.9901 -46.8183 -75.5406 -179.57 10.0622 87.5383 -83.2621 74.8936 39.6236 -29.4831 0 5.96354e-015 -47.4632 28.8139 47.1823 -1.84756 -18.6565 -177.518 -59.8461 -1.59028e-015 -0 30.046 4.18163 -8.67594 90 6.36111e-015 -0 -56.6335 -8.62095 170.979 -74.265 6.36111e-015 4.77083e-015 27.8652 -6.02804 12.4988 90 -3.18055e-015 -3.18055e-015 
304.488 71.4546 -126.939 -98.2631 -45.5198 177.62 10.9303 -0.129475 2.1525 21.8577 0.152031 4.29053 21.8577 0.15203 4.29052 -8.30907e-012 -9.0191e-006 -5.27751e-005 -24.5505 -20.6356 1.9568 179.174 2.80947 -73.6081 0.281419 7.72003 56.1958 -38.5496 0 3.32964e-015 -67.9715 -46.8189 -75.5373 -179.57 10.0432 87.5345 -82.2279 74.837 38.7233 -29.5092 0 -4.77083e-015 -47.2936 28.8637 47.0752 -1.68294 -18.6907 -177.431 -59.9529 1.59028e-015 -6.36111e-015 30.2382 4.19825 -8.71171 90 0 -9.54166e-015 -56.3983 -8.64434 171.099 -74.1131 0 4.77083e-015 27.7719 -6.04088 12.5251 90 0 -3.18055e-015 
304.394 71.4602 -126.879 -97.9227 -45.4966 177.7 10.9365 -0.131582 2.16405 21.8701 0.15028 4.31378 21.8701 0.150278 4.31378 -8.31384e-012 -9.0191e-006 -5.27751e-005 -24.6627 -20.561 1.99673 179.181 2.78399 -73.6053 0.309559 7.71576 56.203 -38.5441 0 2.31087e-015 -67.7037 -46.6241 -74.965 -179.559 10.0081 87.4641 -81.3103 74.7521 37.9096 -29.6137 9.54166e-015 -3.97569e-016 -47.3545 28.8537 47.1651 -1.50565 -18.7296 -177.319 -60.0756 3.18055e-015 -0 30.273 4.16242 -8.63705 90 -3.18055e-015 -3.18055e-015 -56.122 -8.71215 171.258 -73.9482 0 1.59028e-015 27.6604 -6.02308 12.4863 90 3.18055e-015 -0 
